<?xml version="1.0" encoding="utf-8"?>
<!-- Generator: Adobe Illustrator 13.0.0, SVG Export Plug-In . SVG Version: 6.00 Build 14948)  -->
<svg version="1.2" baseProfile="tiny" id="Layer_1" xmlns="http://www.w3.org/2000/svg" xmlns:xlink="http://www.w3.org/1999/xlink"
	 x="0px" y="0px" width="512px" height="512px" viewBox="0 0 512 512" xml:space="preserve">
<g>
	<circle fill="#548136" cx="199.42" cy="157.226" r="42.345"/>
	<circle fill="#599132" cx="423.826" cy="218.967" r="30.989"/>
	<path fill="#69C345" d="M303.036,323.373c0.509,0.01,1.018,0.021,1.529,0.021c46.478,0,84.156-37.678,84.156-84.158
		c0-46.478-37.679-84.155-84.156-84.155c-46.479,0-84.156,37.677-84.156,84.155c0,4.774,0.404,9.454,1.167,14.011
		C228.166,292.566,262.017,322.641,303.036,323.373z"/>
	<circle fill="#62802E" cx="400.572" cy="129.385" r="56.396"/>
	<circle fill="#4FA813" cx="105.447" cy="179.473" r="50.415"/>
	<circle fill="#507C4B" cx="195.251" cy="64.476" r="42.522"/>
	<circle fill="#599132" cx="289.264" cy="100.705" r="51.969"/>
	<circle fill="#7AA654" cx="140.941" cy="108.34" r="21.792"/>
	<g>
		<path fill="#C5EAAC" d="M212.274,248.253c-1.029,2.394-2.31,4.652-3.8,6.747l4.627,0.361
			C212.736,253.019,212.458,250.65,212.274,248.253z"/>
		<path fill="#C5EAAC" d="M308.241,481.903c0,0-14.179-39.173-14.179-110.708c0-14.736,2.146-27.874,5.543-39.458
			c-43.548-1.36-79.322-33.453-86.345-75.347c-0.057-0.342-0.106-0.687-0.159-1.029L208.475,255
			c-0.567,0.794-1.161,1.568-1.788,2.313c-5.481,6.526-13.229,11.1-22.027,12.536c13.764,19.543,31.424,54.436,27.479,101.346
			c-6.302,74.941-11.026,110.708-11.026,110.708s-11.029,22.142,50.414,22.142C312.967,504.045,308.241,481.903,308.241,481.903z"/>
	</g>
	<path fill="#97CA72" d="M198.885,253.179c4.64-5.527,7.427-12.605,7.429-20.384c-0.002-8.773-3.541-16.669-9.288-22.423
		c-5.751-5.744-13.649-9.284-22.42-9.286c-8.771,0.002-16.669,3.542-22.421,9.286c-5.745,5.754-9.285,13.65-9.287,22.423
		c0.002,8.769,3.542,16.668,9.287,22.42c5.752,5.746,13.649,9.286,22.421,9.288c1.019-0.001,2.037-0.054,3.054-0.15
		C186.161,263.541,193.672,259.377,198.885,253.179z"/>
</g>
</svg>
