<?xml version="1.0" encoding="utf-8"?>
<!-- Generator: Adobe Illustrator 13.0.0, SVG Export Plug-In . SVG Version: 6.00 Build 14948)  -->
<svg version="1.2" baseProfile="tiny" id="Layer_1" xmlns="http://www.w3.org/2000/svg" xmlns:xlink="http://www.w3.org/1999/xlink"
	 x="0px" y="0px" width="1224px" height="512px" viewBox="-463.5 -667.5 1224 512" xml:space="preserve">
<g>
	<circle fill="#548136" cx="-304.58" cy="-517.774" r="42.345"/>
	<circle fill="#599132" cx="-80.174" cy="-456.033" r="30.989"/>
	<path fill="#69C345" d="M-200.964-351.627c0.509,0.01,1.019,0.021,1.528,0.021c46.479,0,84.156-37.679,84.156-84.159
		c0-46.478-37.679-84.155-84.156-84.155c-46.479,0-84.155,37.677-84.155,84.155c0,4.774,0.404,9.454,1.167,14.011
		C-275.834-382.434-241.982-352.359-200.964-351.627z"/>
	<circle fill="#62802E" cx="-103.428" cy="-545.615" r="56.396"/>
	<circle fill="#4FA813" cx="-398.553" cy="-495.527" r="50.415"/>
	<circle fill="#507C4B" cx="-308.749" cy="-610.524" r="42.522"/>
	<circle fill="#599132" cx="-214.736" cy="-574.295" r="51.969"/>
	<circle fill="#7AA654" cx="-363.059" cy="-566.66" r="21.792"/>
	<g>
		<path fill="#C5EAAC" d="M-291.726-426.747c-1.029,2.394-2.31,4.652-3.8,6.747l4.627,0.361
			C-291.264-421.981-291.542-424.35-291.726-426.747z"/>
		<path fill="#C5EAAC" d="M-195.759-193.097c0,0-14.179-39.173-14.179-110.708c0-14.736,2.146-27.875,5.543-39.459
			c-43.548-1.359-79.322-33.452-86.346-75.346c-0.057-0.342-0.106-0.687-0.159-1.029l-4.626-0.361
			c-0.567,0.794-1.161,1.568-1.788,2.313c-5.481,6.526-13.229,11.101-22.027,12.537c13.764,19.543,31.424,54.436,27.479,101.346
			c-6.302,74.94-11.026,110.708-11.026,110.708s-11.029,22.142,50.414,22.142C-191.033-170.955-195.759-193.097-195.759-193.097z"/>
	</g>
	<path fill="#97CA72" d="M-305.115-421.821c4.64-5.527,7.427-12.605,7.429-20.384c-0.002-8.773-3.541-16.669-9.288-22.423
		c-5.751-5.744-13.649-9.284-22.42-9.286c-8.771,0.002-16.669,3.542-22.421,9.286c-5.745,5.754-9.285,13.65-9.287,22.423
		c0.002,8.769,3.542,16.668,9.287,22.42c5.752,5.746,13.649,9.286,22.421,9.288c1.019-0.001,2.037-0.054,3.054-0.149
		C-317.839-411.459-310.328-415.623-305.115-421.821z"/>
</g>
<g>
	<path fill="#FFFFFF" d="M-148.822-300.544l-0.425-18.277c0-1.51,0.518-2.692,1.559-3.542c1.038-0.85,2.313-1.275,3.825-1.275
		c1.51,0,2.88,0.403,4.109,1.204c1.227,0.804,1.7,1.913,1.417,3.33l0.992,61.207c5.951-7.935,13.978-14.593,24.086-19.978
		c8.406-4.534,15.773-6.801,22.103-6.801c5.572,0,9.869,1.795,12.893,5.384c2.267,2.833,3.4,6.588,3.4,11.264
		c0,4.675-0.875,8.738-2.621,12.185c-1.749,3.448-4.038,6.754-6.872,9.917c-2.833,3.166-6.092,6.117-9.776,8.855
		c-3.684,2.74-7.417,5.196-11.193,7.367c-7.179,4.158-14.263,7.604-21.252,10.343c-0.567-0.188-1.512-0.234-2.834-0.142
		c-1.324,0.096-2.929,0.142-4.817,0.142c-5.101,0-9.588-0.613-13.46-1.842c-0.945-8.972-1.417-22.62-1.417-40.946L-148.822-300.544z
		 M-136.921-230.978c0,1.04,0.968,1.559,2.905,1.559c1.935,0,4.321-0.377,7.155-1.134c2.834-0.755,6.256-2.055,10.272-3.896
		c4.014-1.842,8.052-4.226,12.114-7.155c9.444-6.705,16.577-14.593,21.395-23.66c-1.229-5.384-4.913-8.076-11.051-8.076
		c-5.575,0-11.855,2.079-18.844,6.234c-9.917,5.951-17.001,13.318-21.252,22.102c-1.795,3.496-2.692,7.038-2.692,10.627
		c0,0.945,0,1.7,0,2.267S-136.921-231.166-136.921-230.978z"/>
	<path fill="#FFFFFF" d="M-39.302-228.286c8.311,0,20.828-3.776,37.546-11.334c1.039,0,1.889,0.354,2.55,1.063
		c0.66,0.708,0.992,1.536,0.992,2.479c-3.779,6.424-11.005,11.43-21.678,15.018c-10.675,3.589-20.639,4.202-29.895,1.843
		c-10.484-2.739-16.86-8.644-19.127-17.711c-0.19-1.793-0.284-4.201-0.284-7.226c0-3.021,0.779-7.014,2.338-11.973
		s4.226-9.656,8.005-14.097c3.777-4.438,8.218-7.934,13.318-10.484s10.531-3.826,16.293-3.826c5.477,0,11.618,1.891,18.419,5.667
		c3.21,1.795,5.76,3.826,7.651,6.092c1.888,2.267,2.833,4.583,2.833,6.942c0,0.662-0.049,1.324-0.142,1.983
		c-0.19,5.763-2.976,9.4-8.359,10.91c-2.362,0.662-5.101,0.991-8.218,0.991l-20.402-0.85c-6.801,0-11.997,1.466-15.585,4.392
		c-2.079,1.607-3.542,4.017-4.392,7.227C-55.077-232.583-49.031-228.286-39.302-228.286z M-14.011-272.066
		c-2.125-1.51-4.321-2.597-6.588-3.259c-2.267-0.66-4.157-0.992-5.667-0.992c-1.512,0-3.967,0.496-7.368,1.488
		s-6.424,2.103-9.068,3.33c-6.517,3.024-9.776,6.188-9.776,9.492c7.556,0.662,13.223,0.992,17.002,0.992
		c10.484,0,17.568-0.896,21.252-2.692c2.267-0.942,3.4-2.125,3.4-3.542C-10.823-268.949-11.886-270.554-14.011-272.066z"/>
	<path fill="#FFFFFF" d="M58.743-254.922c10.39,0,15.585,2.646,15.585,7.934c0,3.968-2.883,8.597-8.643,13.885
		c-8.596,7.842-20.167,14.122-34.712,18.844c-0.662,0-1.395-0.661-2.196-1.983c-0.804-1.323-1.417-2.338-1.842-3.046
		c-0.425-0.708-0.733-1.155-0.921-1.346c10.861-3.589,19.787-7.935,26.778-13.035c4.722-3.4,7.084-6.186,7.084-8.359
		c0-2.172-2.788-3.259-8.359-3.259c-5.574,0-13.743,1.324-24.511,3.968c-4.913-0.188-9.163-1.936-12.751-5.243
		c-3.117-2.926-4.675-5.879-4.675-8.854s0.85-5.714,2.55-8.218c1.7-2.501,3.967-4.839,6.801-7.013
		c2.833-2.172,6.139-4.155,9.917-5.951c9.256-4.439,18.844-6.659,28.762-6.659c2.927,0,5.76,0.283,8.501,0.85
		c2.267,0,3.588,0.992,3.967,2.975c0.376,1.984,0.566,5.243,0.566,9.776c-5.574-2.55-11.855-3.826-18.844-3.826
		c-8.691,0-15.868,1.749-21.536,5.243c-5.858,3.4-8.879,7.841-9.068,13.318c0,2.646,1.935,3.967,5.809,3.967l10.343-1.134
		C46.226-253.977,53.359-254.922,58.743-254.922z"/>
	<path fill="#FFFFFF" d="M104.507-231.97l0.283-22.669c0-3.589-0.332-6.659-0.992-9.21h-21.96l-0.283-9.776h21.252v-36.554
		c0.283-0.85,0.85-1.7,1.7-2.55c1.321-1.321,2.431-1.983,3.329-1.983c0.896,0,1.676,0.095,2.338,0.283
		c0.66,0.19,1.368,0.85,2.125,1.984c1.51,6.234,2.268,15.634,2.268,28.195c0,3.117,0.142,6.188,0.425,9.209
		c3.021-0.376,6.044-0.567,9.067-0.567h7.368c1.793,0,3.446-0.093,4.958-0.283l-0.425,10.201l-20.686-0.567l0.709,48.881
		c-1.7,0.755-3.166,1.133-4.393,1.133C106.866-216.243,104.507-221.485,104.507-231.97z"/>
	<path fill="#FFFFFF" d="M200.709-300.544l-0.426-18.277c0-1.51,0.519-2.692,1.559-3.542c1.039-0.85,2.313-1.275,3.826-1.275
		c1.51,0,2.88,0.403,4.108,1.204c1.227,0.804,1.7,1.913,1.417,3.33l0.991,61.207c5.951-7.935,13.979-14.593,24.087-19.978
		c8.405-4.534,15.772-6.801,22.103-6.801c5.571,0,9.868,1.795,12.893,5.384c2.267,2.833,3.4,6.588,3.4,11.264
		c0,4.675-0.874,8.738-2.621,12.185c-1.749,3.448-4.038,6.754-6.871,9.917c-2.834,3.166-6.093,6.117-9.776,8.855
		c-3.684,2.74-7.416,5.196-11.193,7.367c-7.179,4.158-14.264,7.604-21.252,10.343c-0.567-0.188-1.513-0.234-2.834-0.142
		c-1.324,0.096-2.929,0.142-4.817,0.142c-5.101,0-9.588-0.613-13.46-1.842c-0.945-8.972-1.416-22.62-1.416-40.946L200.709-300.544z
		 M212.61-230.978c0,1.04,0.967,1.559,2.904,1.559c1.935,0,4.321-0.377,7.155-1.134c2.833-0.755,6.256-2.055,10.271-3.896
		c4.014-1.842,8.052-4.226,12.114-7.155c9.443-6.705,16.576-14.593,21.394-23.66c-1.229-5.384-4.912-8.076-11.051-8.076
		c-5.574,0-11.855,2.079-18.844,6.234c-9.918,5.951-17.002,13.318-21.253,22.102c-1.795,3.496-2.691,7.038-2.691,10.627
		c0,0.945,0,1.7,0,2.267S212.61-231.166,212.61-230.978z"/>
	<path fill="#FFFFFF" d="M350.893-270.083c-3.967-2.833-9.067-4.25-15.302-4.25c-5.857,0-11.288,1.087-16.294,3.259
		c-9.445,3.967-15.917,9.067-19.41,15.302c-1.512,2.834-2.267,5.857-2.267,9.067c0,0.567,0,2.15,0,4.747
		c0,2.599,0.472,6.092,1.417,10.484c0.942,4.392,1.416,8.855,1.416,13.389c-1.983,0.093-3.59,0.33-4.816,0.709
		c-1.229,0.376-2.268,0.566-3.117,0.566c-0.851,0-1.583-0.379-2.196-1.134c-0.615-0.755-1.3-2.218-2.055-4.392
		c-0.095-0.567-0.283-2.172-0.566-4.817c-0.283-2.644-0.638-5.855-1.063-9.635c-0.425-3.776-0.899-7.91-1.417-12.397
		c-0.521-4.484-1.016-8.901-1.487-13.247c-1.041-9.444-1.842-16.386-2.409-20.827c0-2.267,1.651-3.4,4.959-3.4
		c1.983,0,3.542,0.828,4.676,2.479c1.134,1.654,2.03,3.542,2.691,5.667c0.66,2.125,1.109,4.229,1.347,6.305
		c0.234,2.079,0.447,3.542,0.638,4.392c12.468-11.144,27.958-16.719,46.472-16.719c2.076,0,4.25,0.049,6.518,0.142
		c0.566-0.093,1.274-0.142,2.125-0.142c0.85,0,1.7,0.567,2.55,1.7c1.039,1.324,1.559,2.929,1.559,4.817
		C354.859-273.292,353.536-270.649,350.893-270.083z"/>
	<path fill="#FFFFFF" d="M364.919-245.288c0-11.144,4.817-20.119,14.452-26.919c7.65-5.384,16.86-8.643,27.628-9.776
		c0.566,0,1.889,0,3.967,0c2.077,0,4.864,0.616,8.359,1.842c7.744,2.646,13.035,7.321,15.869,14.026
		c1.133,2.646,1.7,4.888,1.7,6.729c0,1.843-0.049,3.142-0.143,3.896c0,11.809-4.487,21.111-13.459,27.912
		c-8.313,6.233-18.702,9.351-31.171,9.351c-8.975,0-15.751-2.076-20.331-6.234C367.208-228.616,364.919-235.559,364.919-245.288z
		 M374.695-241.888c0,5.857,1.559,9.825,4.676,11.901c2.359,1.512,6.327,2.268,11.901,2.268c5.572,0,10.484-0.426,14.734-1.275
		c4.251-0.851,8.027-2.313,11.335-4.393c7.084-4.533,10.626-11.569,10.626-21.11c0-5.667-1.512-10.294-4.533-13.885
		c-3.308-3.872-7.651-5.809-13.035-5.809c-3.684,0.662-7.392,1.37-11.122,2.125c-3.732,0.757-7.25,2.22-10.556,4.392
		C381.543-263.045,376.867-254.448,374.695-241.888z"/>
	<path fill="#FFFFFF" d="M500.297-233.315c3.826-1.559,7.58-2.998,11.264-4.321c3.685-1.322,7.202-1.983,10.556-1.983
		c3.352,0,5.03,1.04,5.03,3.116c0,0.474-0.12,1.205-0.354,2.196c-0.237,0.992-1.512,2.174-3.825,3.542
		c-2.316,1.37-5.149,2.67-8.501,3.896c-3.354,1.229-7.014,2.362-10.98,3.4c-3.968,1.04-7.842,1.938-11.618,2.692
		c-7.842,1.606-13.413,2.408-16.719,2.408c-3.308,0-6.871-0.376-10.697-1.134c-3.825-0.755-7.392-1.983-10.696-3.684
		c-7.651-3.967-11.477-9.822-11.477-17.568c0-0.566,0-1.7,0-3.4s0.708-4.131,2.125-7.297c1.417-3.163,3.542-6.327,6.376-9.492
		c2.833-3.164,6.139-6.068,9.918-8.714c7.934-5.667,16.244-9.351,24.936-11.051c3.022-0.66,5.548-0.992,7.58-0.992
		c2.03,0,3.706,0.024,5.03,0.071c1.321,0.049,2.691,0.142,4.108,0.283s2.644,0.496,3.684,1.063c2.455,1.229,3.684,3.638,3.684,7.226
		c0,2.267-1.606,4.487-4.816,6.659c-0.851,0.566-1.607,1.087-2.268,1.559c-0.474-2.172-1.087-4.014-1.842-5.526
		c-0.757-1.51-2.408-2.267-4.959-2.267c-11.146,2.362-20.734,5.904-28.762,10.626c-9.067,5.385-13.602,11.052-13.602,17.002
		c0,0.662,0.047,1.371,0.142,2.126c0,6.046,2.313,10.343,6.943,12.893c3.493,1.891,8.005,2.834,13.53,2.834
		s10.318-0.638,14.381-1.913C492.526-230.341,496.472-231.757,500.297-233.315z"/>
	<path fill="#FFFFFF" d="M592.107-233.315c3.826-1.559,7.58-2.998,11.264-4.321c3.685-1.322,7.202-1.983,10.556-1.983
		c3.352,0,5.03,1.04,5.03,3.116c0,0.474-0.12,1.205-0.354,2.196c-0.237,0.992-1.512,2.174-3.825,3.542
		c-2.316,1.37-5.149,2.67-8.501,3.896c-3.354,1.229-7.014,2.362-10.98,3.4c-3.968,1.04-7.842,1.938-11.618,2.692
		c-7.842,1.606-13.413,2.408-16.719,2.408c-3.308,0-6.871-0.376-10.697-1.134c-3.825-0.755-7.392-1.983-10.696-3.684
		c-7.651-3.967-11.477-9.822-11.477-17.568c0-0.566,0-1.7,0-3.4s0.708-4.131,2.125-7.297c1.417-3.163,3.542-6.327,6.376-9.492
		c2.833-3.164,6.139-6.068,9.918-8.714c7.934-5.667,16.244-9.351,24.936-11.051c3.022-0.66,5.548-0.992,7.58-0.992
		c2.03,0,3.706,0.024,5.03,0.071c1.321,0.049,2.691,0.142,4.108,0.283s2.644,0.496,3.684,1.063c2.455,1.229,3.684,3.638,3.684,7.226
		c0,2.267-1.606,4.487-4.816,6.659c-0.851,0.566-1.607,1.087-2.268,1.559c-0.474-2.172-1.087-4.014-1.842-5.526
		c-0.757-1.51-2.408-2.267-4.959-2.267c-11.146,2.362-20.734,5.904-28.762,10.626c-9.067,5.385-13.602,11.052-13.602,17.002
		c0,0.662,0.047,1.371,0.142,2.126c0,6.046,2.313,10.343,6.943,12.893c3.493,1.891,8.005,2.834,13.53,2.834
		s10.318-0.638,14.381-1.913C584.337-230.341,588.282-231.757,592.107-233.315z"/>
	<path fill="#FFFFFF" d="M630.148-245.288c0-11.144,4.817-20.119,14.452-26.919c7.65-5.384,16.86-8.643,27.628-9.776
		c0.566,0,1.889,0,3.967,0c2.077,0,4.864,0.616,8.359,1.842c7.744,2.646,13.035,7.321,15.869,14.026
		c1.133,2.646,1.699,4.888,1.699,6.729c0,1.843-0.048,3.142-0.142,3.896c0,11.809-4.487,21.111-13.459,27.912
		c-8.313,6.233-18.702,9.351-31.171,9.351c-8.975,0-15.751-2.076-20.331-6.234C632.438-228.616,630.148-235.559,630.148-245.288z
		 M639.925-241.888c0,5.857,1.559,9.825,4.676,11.901c2.359,1.512,6.327,2.268,11.901,2.268c5.572,0,10.484-0.426,14.734-1.275
		c4.251-0.851,8.027-2.313,11.335-4.393c7.084-4.533,10.626-11.569,10.626-21.11c0-5.667-1.512-10.294-4.533-13.885
		c-3.308-3.872-7.651-5.809-13.035-5.809c-3.684,0.662-7.392,1.37-11.122,2.125c-3.732,0.757-7.25,2.22-10.556,4.392
		C646.772-263.045,642.097-254.448,639.925-241.888z"/>
	<path fill="#FFFFFF" d="M710.767-273.341c-0.19-5.101-0.379-9.657-0.567-13.672c-0.19-4.014-0.308-6.989-0.354-8.926
		c-0.049-1.935-0.828-6.681-2.338-14.239c0.85-1.133,1.676-2.218,2.479-3.258c0.801-1.039,1.959-1.559,3.471-1.559
		c3.306,0,5.855,13.934,7.651,41.796c0.943,16.151,1.417,32.304,1.417,48.455c0,4.346-3.024,6.518-9.068,6.518l-1.133-0.142
		c0-4.91-0.142-11.193-0.426-18.844c-0.283-7.651-0.495-14.31-0.637-19.978C711.12-262.856,710.954-268.24,710.767-273.341z"/>
	<path fill="#FFFFFF" d="M730.603-304.228c0-3.305,1.935-4.958,5.809-4.958c2.551,0,4.627,0.566,6.234,1.7
		c0.283,1.04,0.425,2.054,0.425,3.046s-0.378,1.961-1.133,2.905c-0.758,0.945-1.891,1.417-3.4,1.417
		c-1.513,0-3.024-0.354-4.534-1.063C732.491-301.89,731.357-302.904,730.603-304.228z M743.779-284.959
		c1.227,17.664,2.267,38.112,3.117,61.349c-0.567,2.929-2.834,4.393-6.801,4.393c-1.041,0-2.104-0.213-3.188-0.638
		c-1.087-0.426-1.771-1.015-2.055-1.771v-63.332H743.779z"/>
</g>
</svg>
