<svg version="1.2" baseProfile="tiny" xmlns="http://www.w3.org/2000/svg" width="512" height="512" viewBox="0 0 512 512"><circle fill="#548136" cx="199.42" cy="157.226" r="42.345"/><circle fill="#599132" cx="423.826" cy="218.967" r="30.989"/><path fill="#69C345" d="M303.036 323.373c.51.01 1.018.02 1.53.02 46.477 0 84.155-37.677 84.155-84.157 0-46.478-37.678-84.155-84.155-84.155-46.48 0-84.156 37.678-84.156 84.156 0 4.774.403 9.454 1.166 14.01 6.59 39.32 40.44 69.395 81.46 70.127z"/><circle fill="#62802E" cx="400.572" cy="129.385" r="56.396"/><circle fill="#4FA813" cx="105.447" cy="179.473" r="50.415"/><circle fill="#507C4B" cx="195.251" cy="64.476" r="42.522"/><circle fill="#599132" cx="289.264" cy="100.705" r="51.969"/><circle fill="#7AA654" cx="140.941" cy="108.34" r="21.792"/><g fill="#C5EAAC"><path d="M212.274 248.253a36.55 36.55 0 0 1-3.8 6.747l4.627.36a91.733 91.733 0 0 1-.826-7.107z"/><path d="M308.24 481.903s-14.178-39.173-14.178-110.708c0-14.736 2.146-27.874 5.543-39.458-43.548-1.36-79.322-33.453-86.345-75.347-.057-.342-.106-.687-.16-1.03l-4.625-.36a36.44 36.44 0 0 1-23.815 14.85c13.764 19.542 31.424 54.435 27.48 101.345-6.303 74.94-11.027 110.708-11.027 110.708s-11.03 22.142 50.414 22.142c61.44 0 56.714-22.142 56.714-22.142z"/></g><path fill="#97CA72" d="M198.885 253.18c4.64-5.528 7.427-12.606 7.43-20.385-.003-8.773-3.542-16.67-9.29-22.423-5.75-5.744-13.648-9.284-22.42-9.286-8.77.002-16.668 3.542-22.42 9.286-5.745 5.754-9.285 13.65-9.287 22.423.002 8.77 3.542 16.668 9.287 22.42 5.752 5.746 13.65 9.286 22.42 9.288 1.02 0 2.038-.054 3.055-.15 8.5-.812 16.012-4.976 21.225-11.174z"/></svg>