<svg version="1.2" baseProfile="tiny" xmlns="http://www.w3.org/2000/svg" width="1224" height="512" viewBox="-463.5 -667.5 1224 512"><circle fill="#548136" cx="-304.58" cy="-517.774" r="42.345"/><circle fill="#599132" cx="-80.174" cy="-456.033" r="30.989"/><path fill="#69C345" d="M-200.964-351.627c.51.01 1.02.02 1.528.02 46.48 0 84.156-37.678 84.156-84.158 0-46.478-37.68-84.155-84.156-84.155-46.48 0-84.155 37.677-84.155 84.155 0 4.774.403 9.454 1.166 14.01 6.59 39.32 40.442 69.396 81.46 70.128z"/><circle fill="#62802E" cx="-103.428" cy="-545.615" r="56.396"/><circle fill="#4FA813" cx="-398.553" cy="-495.527" r="50.415"/><circle fill="#507C4B" cx="-308.749" cy="-610.524" r="42.522"/><circle fill="#599132" cx="-214.736" cy="-574.295" r="51.969"/><circle fill="#7AA654" cx="-363.059" cy="-566.66" r="21.792"/><g fill="#C5EAAC"><path d="M-291.726-426.747a36.55 36.55 0 0 1-3.8 6.747l4.627.36a91.733 91.733 0 0 1-.826-7.107zM-195.76-193.097s-14.178-39.173-14.178-110.708c0-14.736 2.146-27.875 5.543-39.46-43.548-1.358-79.322-33.45-86.346-75.345-.058-.342-.107-.687-.16-1.03l-4.626-.36a36.44 36.44 0 0 1-23.815 14.85c13.764 19.543 31.424 54.436 27.48 101.346-6.304 74.94-11.028 110.708-11.028 110.708s-11.03 22.142 50.414 22.142c61.44 0 56.715-22.143 56.715-22.143z"/></g><path fill="#97CA72" d="M-305.115-421.82c4.64-5.528 7.427-12.606 7.43-20.385-.003-8.773-3.542-16.67-9.29-22.423-5.75-5.744-13.648-9.284-22.42-9.286-8.77.002-16.668 3.542-22.42 9.286-5.745 5.754-9.285 13.65-9.287 22.423.002 8.77 3.542 16.668 9.287 22.42 5.752 5.746 13.65 9.286 22.42 9.288 1.02 0 2.038-.054 3.055-.15 8.5-.812 16.012-4.976 21.225-11.174z"/><g fill="#FFF"><path d="M-148.822-300.544l-.425-18.277c0-1.51.518-2.693 1.56-3.543 1.037-.85 2.312-1.275 3.824-1.275 1.51 0 2.88.403 4.11 1.204 1.226.804 1.7 1.913 1.416 3.33l.992 61.207c5.95-7.935 13.978-14.593 24.086-19.978 8.407-4.534 15.774-6.8 22.104-6.8 5.572 0 9.87 1.794 12.893 5.383 2.267 2.833 3.4 6.588 3.4 11.264 0 4.675-.875 8.738-2.62 12.185-1.75 3.448-4.04 6.754-6.873 9.917-2.833 3.166-6.092 6.117-9.776 8.855a113.894 113.894 0 0 1-11.193 7.366c-7.18 4.158-14.263 7.604-21.252 10.343-.567-.19-1.512-.235-2.834-.143-1.325.096-2.93.142-4.818.142-5.1 0-9.588-.614-13.46-1.843-.945-8.972-1.417-22.62-1.417-40.946l.283-38.394zm11.9 69.566c0 1.04.97 1.56 2.906 1.56 1.935 0 4.32-.378 7.155-1.135 2.833-.755 6.255-2.055 10.27-3.896 4.015-1.84 8.053-4.225 12.115-7.154 9.444-6.705 16.577-14.593 21.395-23.66-1.23-5.384-4.913-8.076-11.05-8.076-5.576 0-11.856 2.08-18.845 6.234-9.917 5.95-17 13.318-21.252 22.102-1.795 3.496-2.692 7.038-2.692 10.627v3.399zM-39.302-228.286c8.31 0 20.828-3.776 37.546-11.334 1.04 0 1.89.354 2.55 1.063.66.708.992 1.536.992 2.48-3.78 6.423-11.005 11.43-21.678 15.017-10.675 3.59-20.64 4.202-29.895 1.843-10.484-2.74-16.86-8.644-19.127-17.71-.19-1.794-.284-4.202-.284-7.227 0-3.02.78-7.014 2.338-11.973s4.226-9.656 8.005-14.097c3.777-4.438 8.218-7.934 13.318-10.484s10.53-3.826 16.293-3.826c5.477 0 11.618 1.89 18.42 5.667 3.21 1.795 5.76 3.826 7.65 6.092 1.888 2.267 2.833 4.583 2.833 6.942 0 .662-.05 1.324-.143 1.983-.19 5.763-2.976 9.4-8.36 10.91-2.36.662-5.1.99-8.217.99l-20.402-.85c-6.8 0-11.997 1.467-15.585 4.393-2.08 1.607-3.542 4.017-4.392 7.227 2.363 8.597 8.41 12.894 18.138 12.894zm25.29-43.78c-2.124-1.51-4.32-2.597-6.587-3.26-2.266-.66-4.156-.99-5.666-.99-1.512 0-3.967.495-7.368 1.487s-6.424 2.104-9.068 3.33c-6.517 3.025-9.776 6.19-9.776 9.493 7.556.662 13.223.992 17.002.992 10.484 0 17.568-.896 21.252-2.692 2.267-.942 3.4-2.125 3.4-3.542 0-1.7-1.062-3.304-3.187-4.816zM58.743-254.922c10.39 0 15.585 2.646 15.585 7.934 0 3.968-2.883 8.597-8.643 13.885-8.596 7.842-20.167 14.122-34.712 18.844-.662 0-1.395-.66-2.196-1.982a679.81 679.81 0 0 1-1.842-3.046c-.425-.708-.733-1.155-.92-1.346 10.86-3.59 19.786-7.935 26.777-13.035 4.722-3.4 7.084-6.185 7.084-8.358 0-2.172-2.788-3.26-8.36-3.26-5.573 0-13.742 1.325-24.51 3.97-4.913-.19-9.163-1.937-12.75-5.244-3.118-2.926-4.676-5.88-4.676-8.854s.85-5.714 2.55-8.218c1.7-2.5 3.967-4.84 6.8-7.013 2.834-2.172 6.14-4.155 9.918-5.95 9.256-4.44 18.844-6.66 28.762-6.66 2.927 0 5.76.283 8.5.85 2.268 0 3.59.992 3.968 2.975.376 1.984.566 5.243.566 9.776-5.574-2.55-11.855-3.826-18.844-3.826-8.69 0-15.868 1.75-21.536 5.243-5.858 3.4-8.88 7.842-9.068 13.32 0 2.645 1.935 3.966 5.81 3.966l10.342-1.134c8.878-1.89 16.01-2.834 21.395-2.834zM104.507-231.97l.283-22.67c0-3.588-.332-6.658-.992-9.21h-21.96l-.283-9.775h21.252v-36.554c.283-.85.85-1.7 1.7-2.55 1.32-1.32 2.43-1.982 3.33-1.982.895 0 1.675.095 2.337.283.66.19 1.368.85 2.125 1.985 1.51 6.234 2.267 15.634 2.267 28.195 0 3.117.142 6.188.425 9.21a73.355 73.355 0 0 1 9.067-.568h7.367c1.793 0 3.446-.093 4.958-.283l-.425 10.2-20.686-.567.71 48.88c-1.7.756-3.167 1.134-4.394 1.134-4.724 0-7.083-5.242-7.083-15.727zM200.71-300.544l-.427-18.277c0-1.51.52-2.693 1.56-3.543 1.038-.85 2.312-1.275 3.825-1.275 1.51 0 2.88.403 4.108 1.204 1.227.804 1.7 1.913 1.417 3.33l.99 61.207c5.952-7.935 13.98-14.593 24.088-19.978 8.406-4.534 15.773-6.8 22.104-6.8 5.57 0 9.868 1.794 12.893 5.383 2.267 2.833 3.4 6.588 3.4 11.264 0 4.675-.874 8.738-2.62 12.185-1.75 3.448-4.04 6.754-6.872 9.917-2.834 3.166-6.093 6.117-9.776 8.855a113.775 113.775 0 0 1-11.194 7.366c-7.18 4.158-14.264 7.604-21.252 10.343-.567-.19-1.513-.235-2.834-.143-1.324.096-2.93.142-4.817.142-5.1 0-9.588-.614-13.46-1.843-.945-8.972-1.416-22.62-1.416-40.946l.282-38.394zm11.9 69.566c0 1.04.967 1.56 2.904 1.56 1.935 0 4.32-.378 7.155-1.135 2.832-.755 6.255-2.055 10.27-3.896 4.014-1.84 8.052-4.225 12.114-7.154 9.443-6.705 16.576-14.593 21.394-23.66-1.23-5.384-4.912-8.076-11.05-8.076-5.575 0-11.856 2.08-18.845 6.234-9.918 5.95-17.002 13.318-21.253 22.102-1.795 3.496-2.69 7.038-2.69 10.627v3.399zM350.893-270.083c-3.967-2.833-9.067-4.25-15.302-4.25-5.856 0-11.287 1.087-16.293 3.26-9.445 3.966-15.917 9.066-19.41 15.3a18.98 18.98 0 0 0-2.267 9.068v4.747c0 2.6.472 6.092 1.417 10.484a63.667 63.667 0 0 1 1.416 13.39c-1.983.092-3.59.33-4.816.708-1.23.376-2.268.566-3.117.566-.85 0-1.583-.38-2.196-1.134-.615-.755-1.3-2.218-2.055-4.392-.096-.567-.284-2.172-.567-4.817a1875.62 1875.62 0 0 0-1.063-9.635c-.425-3.776-.9-7.91-1.417-12.397-.52-4.484-1.016-8.9-1.487-13.247-1.04-9.444-1.842-16.386-2.41-20.827 0-2.266 1.652-3.4 4.96-3.4 1.983 0 3.542.83 4.676 2.48 1.134 1.654 2.03 3.542 2.69 5.667.66 2.125 1.11 4.23 1.348 6.305.234 2.08.447 3.542.638 4.392 12.468-11.144 27.958-16.72 46.472-16.72 2.076 0 4.25.05 6.518.143.566-.093 1.274-.142 2.125-.142.85 0 1.7.567 2.55 1.7 1.04 1.324 1.56 2.93 1.56 4.817-.004 4.726-1.327 7.37-3.97 7.935zM364.92-245.288c0-11.144 4.816-20.12 14.45-26.92 7.65-5.383 16.86-8.642 27.63-9.775h3.966c2.077 0 4.864.616 8.36 1.842 7.743 2.645 13.034 7.32 15.868 14.025 1.133 2.646 1.7 4.888 1.7 6.73 0 1.842-.05 3.14-.143 3.895 0 11.81-4.486 21.11-13.458 27.912-8.313 6.233-18.702 9.35-31.17 9.35-8.976 0-15.752-2.075-20.332-6.233-4.582-4.156-6.87-11.1-6.87-20.828zm9.775 3.4c0 5.857 1.56 9.825 4.676 11.9 2.36 1.513 6.328 2.27 11.902 2.27 5.572 0 10.484-.427 14.734-1.276 4.25-.85 8.027-2.313 11.335-4.393 7.085-4.533 10.627-11.57 10.627-21.11 0-5.667-1.512-10.294-4.533-13.885-3.308-3.872-7.65-5.81-13.035-5.81a516.7 516.7 0 0 0-11.123 2.126c-3.732.757-7.25 2.22-10.556 4.392-7.177 4.63-11.853 13.226-14.025 25.786zM500.297-233.315c3.826-1.56 7.58-2.998 11.264-4.32 3.686-1.323 7.203-1.984 10.557-1.984 3.352 0 5.03 1.04 5.03 3.117 0 .474-.12 1.205-.354 2.196-.237.992-1.512 2.174-3.825 3.542-2.316 1.37-5.15 2.67-8.5 3.896-3.355 1.23-7.015 2.363-10.98 3.4a201.492 201.492 0 0 1-11.62 2.693c-7.84 1.606-13.412 2.408-16.718 2.408-3.308 0-6.87-.375-10.697-1.133-3.825-.755-7.392-1.983-10.696-3.684-7.65-3.967-11.477-9.822-11.477-17.568v-3.4c0-1.7.708-4.13 2.125-7.297 1.417-3.163 3.542-6.327 6.376-9.492 2.834-3.164 6.14-6.068 9.92-8.714 7.933-5.667 16.243-9.35 24.935-11.05 3.022-.66 5.548-.993 7.58-.993 2.03 0 3.706.023 5.03.07 1.32.05 2.69.142 4.108.283s2.644.496 3.684 1.063c2.455 1.23 3.684 3.638 3.684 7.226 0 2.267-1.605 4.487-4.815 6.66a83.43 83.43 0 0 0-2.268 1.558c-.474-2.172-1.087-4.014-1.842-5.526-.757-1.51-2.408-2.267-4.96-2.267-11.145 2.362-20.733 5.904-28.76 10.626-9.068 5.385-13.603 11.052-13.603 17.002 0 .662.047 1.37.142 2.126 0 6.047 2.313 10.344 6.943 12.894 3.493 1.89 8.005 2.834 13.53 2.834s10.318-.638 14.38-1.913a153.068 153.068 0 0 0 11.83-4.25zM592.107-233.315c3.826-1.56 7.58-2.998 11.264-4.32 3.686-1.323 7.203-1.984 10.557-1.984 3.352 0 5.03 1.04 5.03 3.117 0 .474-.12 1.205-.354 2.196-.237.992-1.512 2.174-3.825 3.542-2.316 1.37-5.15 2.67-8.5 3.896-3.355 1.23-7.015 2.363-10.98 3.4a201.492 201.492 0 0 1-11.62 2.693c-7.84 1.606-13.412 2.408-16.718 2.408-3.308 0-6.87-.375-10.697-1.133-3.825-.755-7.392-1.983-10.696-3.684-7.65-3.967-11.477-9.822-11.477-17.568v-3.4c0-1.7.708-4.13 2.125-7.297 1.417-3.163 3.542-6.327 6.376-9.492 2.834-3.164 6.14-6.068 9.92-8.714 7.933-5.667 16.243-9.35 24.935-11.05 3.022-.66 5.548-.993 7.58-.993 2.03 0 3.706.023 5.03.07 1.32.05 2.69.142 4.108.283s2.644.496 3.684 1.063c2.455 1.23 3.684 3.638 3.684 7.226 0 2.267-1.605 4.487-4.815 6.66a83.43 83.43 0 0 0-2.268 1.558c-.474-2.172-1.087-4.014-1.842-5.526-.757-1.51-2.408-2.267-4.96-2.267-11.145 2.362-20.733 5.904-28.76 10.626-9.068 5.385-13.603 11.052-13.603 17.002 0 .662.047 1.37.142 2.126 0 6.047 2.313 10.344 6.943 12.894 3.493 1.89 8.005 2.834 13.53 2.834s10.318-.638 14.38-1.913a152.918 152.918 0 0 0 11.83-4.25zM630.148-245.288c0-11.144 4.817-20.12 14.452-26.92 7.65-5.383 16.86-8.642 27.628-9.775h3.967c2.077 0 4.864.616 8.36 1.842 7.743 2.645 13.034 7.32 15.868 14.025 1.133 2.646 1.7 4.888 1.7 6.73 0 1.842-.05 3.14-.143 3.895 0 11.81-4.487 21.11-13.46 27.912-8.312 6.233-18.7 9.35-31.17 9.35-8.975 0-15.75-2.075-20.33-6.233-4.582-4.156-6.872-11.1-6.872-20.828zm9.777 3.4c0 5.857 1.56 9.825 4.676 11.9 2.36 1.513 6.328 2.27 11.902 2.27 5.572 0 10.484-.427 14.734-1.276 4.25-.85 8.027-2.313 11.335-4.393 7.085-4.533 10.627-11.57 10.627-21.11 0-5.667-1.512-10.294-4.533-13.885-3.308-3.872-7.65-5.81-13.035-5.81a516.7 516.7 0 0 0-11.123 2.126c-3.732.757-7.25 2.22-10.556 4.392-7.178 4.63-11.853 13.226-14.025 25.786zM710.767-273.34c-.19-5.102-.38-9.658-.567-13.673-.19-4.014-.308-6.99-.354-8.926-.05-1.934-.828-6.68-2.338-14.238.85-1.133 1.676-2.218 2.48-3.258.8-1.04 1.958-1.56 3.47-1.56 3.306 0 5.855 13.935 7.65 41.797a831.177 831.177 0 0 1 1.418 48.456c0 4.346-3.024 6.518-9.068 6.518l-1.133-.142c0-4.91-.142-11.193-.426-18.844-.284-7.65-.496-14.31-.638-19.978a1396.35 1396.35 0 0 0-.495-16.15zM730.603-304.228c0-3.305 1.935-4.958 5.81-4.958 2.55 0 4.626.566 6.233 1.7.283 1.04.425 2.054.425 3.046s-.377 1.96-1.132 2.905c-.758.945-1.89 1.417-3.4 1.417-1.513 0-3.024-.354-4.534-1.063-1.513-.71-2.647-1.724-3.4-3.048zm13.176 19.27c1.226 17.663 2.266 38.11 3.116 61.348-.567 2.93-2.834 4.393-6.8 4.393-1.042 0-2.105-.213-3.19-.638-1.086-.426-1.77-1.015-2.054-1.77v-63.333h8.927z"/></g></svg>